<svg width="1500" height="1500" viewBox="0 0 1500 1500" fill="none" xmlns="http://www.w3.org/2000/svg">
<g clip-path="url(#clip0_7_24)">
<rect width="1500" height="1500" fill="url(#paint0_linear_7_24)"/>
<path d="M620.849 375.087C616.483 374.838 612.132 375.13 607.747 375.901C561.497 383.526 533.911 442.604 543.619 513.27C549.286 554.395 567.14 590.458 591.39 609.625C604.265 619.75 618.318 625.006 632.568 625.006C635.776 625.006 639.002 624.733 642.252 624.192C688.502 616.567 716.088 557.489 706.38 486.822C700.713 445.697 682.941 409.634 658.691 390.468C646.847 381.124 633.947 375.835 620.849 375.087ZM879.069 375.168C865.944 375.951 853.121 381.043 841.308 390.386C817.058 409.553 799.244 445.574 793.619 486.741C783.953 557.449 811.457 616.567 857.666 624.192C860.916 624.692 864.181 625.006 867.431 625.006C881.723 625.006 895.816 619.75 908.691 609.625C932.941 590.458 950.755 554.437 956.38 513.27C966.046 442.562 938.502 383.444 892.252 375.819C887.835 375.111 883.444 374.907 879.069 375.168ZM443.684 583.339C438.322 583.575 433.01 584.481 427.734 586.106C409.359 591.856 394.097 605.71 384.847 625.168C372.888 650.377 371.754 682.589 381.754 713.547C396.962 760.714 433.387 791.672 469.97 791.672C476.345 791.672 482.682 790.741 488.932 788.824C507.307 783.074 522.569 769.22 531.819 749.761C543.778 724.553 544.912 692.341 534.912 661.382C519.271 612.966 481.225 581.687 443.684 583.339ZM1056.23 583.339C1018.63 581.707 980.728 612.929 965.087 661.382C955.087 692.299 956.18 724.553 968.18 749.761C977.43 769.22 992.692 783.074 1011.07 788.824C1017.32 790.741 1023.7 791.672 1030.03 791.672C1066.61 791.672 1102.99 760.674 1118.24 713.466C1128.24 682.549 1127.15 650.377 1115.15 625.168C1105.9 605.71 1090.64 591.856 1072.27 586.106C1066.97 584.486 1061.6 583.572 1056.23 583.339ZM750 666.672C701.458 666.672 656.687 711.552 627.604 784.511C605.812 839.094 562.651 881.344 511.067 909.511C464.776 934.761 458.333 963.224 458.333 985.683C458.333 1075.85 605.541 1124.92 750 1124.92C894.458 1124.92 1041.67 1075.85 1041.67 985.683C1041.67 963.224 1035.22 934.721 988.932 909.429C937.307 881.304 894.187 839.094 872.395 784.511C843.312 711.594 798.541 666.672 750 666.672Z" fill="white"/>
</g>
<defs>
<linearGradient id="paint0_linear_7_24" x1="-750" y1="750" x2="750" y2="2250" gradientUnits="userSpaceOnUse">
<stop stop-color="#E65272"/>
<stop offset="1" stop-color="#9354A3"/>
</linearGradient>
<clipPath id="clip0_7_24">
<rect width="1500" height="1500" rx="750" fill="white"/>
</clipPath>
</defs>
</svg>
